<svg xmlns="http://www.w3.org/2000/svg" viewBox="0 0 24 24" width="512" height="512">
  <!-- 8-petal flower -->
  <path d="M12,12 C8.5,10 7.8,6.5 12,4.5 C16.2,6.5 15.5,10 12,12 Z" fill="#FF6B6B"/>
  <path d="M12,12 C10.9,8.1 12.9,5.1 17.3,6.7 C18.9,11.1 15.9,13.1 12,12 Z" fill="#FFA94D"/>
  <path d="M12,12 C14,8.5 17.5,7.8 19.5,12 C17.5,16.2 14,15.5 12,12 Z" fill="#FFD43B"/>
  <path d="M12,12 C15.9,10.9 18.9,12.9 17.3,17.3 C12.9,18.9 10.9,15.9 12,12 Z" fill="#51CF66"/>
  <path d="M12,12 C15.5,14 16.2,17.5 12,19.5 C7.8,17.5 8.5,14 12,12 Z" fill="#339AF0"/>
  <path d="M12,12 C13.1,15.9 11.1,18.9 6.7,17.3 C5.1,12.9 8.1,10.9 12,12 Z" fill="#5C7CFA"/>
  <path d="M12,12 C10,15.5 6.5,16.2 4.5,12 C6.5,7.8 10,8.5 12,12 Z" fill="#CC5DE8"/>
  <path d="M12,12 C8.1,13.1 5.1,11.1 6.7,6.7 C11.1,5.1 13.1,8.1 12,12 Z" fill="#F06595"/>
  <!-- Center -->
  <circle cx="12" cy="12" r="2.5" fill="#FFD43B"/>
</svg>
